<svg xmlns="http://www.w3.org/2000/svg" width="191.92" height="28.412" viewBox="0 0 191.92 28.412"><g transform="translate(0 0)"><path d="M214.154,135.159V111.574h-5V139.9h19.405v-4.745Z" transform="translate(-36.642 -111.574)" fill="#433f3f"/><rect width="4.997" height="28.33" transform="translate(109.269)" fill="#433f3f"/><rect width="4.997" height="28.33" fill="#FF5013"/><path d="M175.6,111.625H156.413v5h7.1V139.9h5V116.622h7.1Z" transform="translate(-36.642 -111.574)" fill="#433f3f"/><path d="M76.954,111.625v12.188h5V116.37H87.3l8.694,9.436-8.682,9.436H81.952v-3.168h-5v7.913H89.511l8.385-9.151V120.9l-8.374-9.277Z" transform="translate(-36.642 -111.574)" fill="#FF5013"/><rect width="4.997" transform="translate(172.514)" fill="#433f3f"/><path d="M63.532,111.574l-9.411,7.06v-7.06h-5V139.9h5V123.1l11.13-8.349V139.9h5v-28.33Z" transform="translate(-36.642 -111.574)" fill="#FF5013"/></g><g transform="translate(68.446)"><path d="M109.974,111.574h-4.886v12.332l4.886,5.3Z" transform="translate(-105.088 -111.574)" fill="#FF5013"/><path d="M105.088,123.906v16h4.886V129.21Z" transform="translate(-105.088 -111.574)" fill="#433f3f"/></g><g transform="translate(80.413 0.051)"><path d="M125.44,111.625l-8.385,9.151v9.932l8.374,9.277H138V127.8h-5v7.443h-5.349l-8.694-9.436,8.682-9.436h5.437v3.168H138v-7.913Z" transform="translate(-117.056 -111.625)" fill="#433f3f"/></g><path d="M194.973,111.574h-8.546l-8.985,28.33h5.133l3.122-9.843,13.121,9.843h5.141Zm-8.2,15.079,3.922-12.366,6.371,20.088Z" transform="translate(-36.642 -111.574)" fill="#433f3f"/></svg>